<svg width="28" height="28" viewBox="0 0 28 28" fill="none" xmlns="http://www.w3.org/2000/svg">
<path d="M26.5 14C26.5 20.9037 20.9037 26.5 14 26.5C7.09625 26.5 1.5 20.9037 1.5 14C1.5 7.09625 7.09625 1.5 14 1.5C20.9037 1.5 26.5 7.09625 26.5 14Z" stroke="black" stroke-width="2" stroke-linecap="round" stroke-linejoin="round"/>
<path d="M5.875 22.75L6.575 21.525C7.12163 20.568 7.91158 19.7726 8.86475 19.2194C9.81792 18.6662 10.9004 18.3749 12.0025 18.375H15.9975C17.0996 18.3749 18.1821 18.6662 19.1353 19.2194C20.0884 19.7726 20.8784 20.568 21.425 21.525L22.125 22.75M17.4375 10.875C17.4375 11.7867 17.0753 12.661 16.4307 13.3057C15.786 13.9503 14.9117 14.3125 14 14.3125C13.0883 14.3125 12.214 13.9503 11.5693 13.3057C10.9247 12.661 10.5625 11.7867 10.5625 10.875C10.5625 9.96332 10.9247 9.08898 11.5693 8.44432C12.214 7.79966 13.0883 7.4375 14 7.4375C14.9117 7.4375 15.786 7.79966 16.4307 8.44432C17.0753 9.08898 17.4375 9.96332 17.4375 10.875Z" stroke="black" stroke-width="2" stroke-linecap="round" stroke-linejoin="round"/>
</svg>
