<svg width="28" height="28" viewBox="0 0 28 28" fill="none" xmlns="http://www.w3.org/2000/svg">
<path d="M16.5 16.5L19.625 19.625M19.5413 22.1562C19.3606 21.9866 19.2158 21.7824 19.1156 21.5557C19.0154 21.329 18.9617 21.0845 18.9578 20.8367C18.9539 20.5889 18.9999 20.3428 19.0929 20.1131C19.1859 19.8834 19.3242 19.6747 19.4994 19.4994C19.6747 19.3242 19.8834 19.1859 20.1131 19.0929C20.3428 18.9999 20.5889 18.9539 20.8367 18.9578C21.0845 18.9617 21.329 19.0154 21.5557 19.1156C21.7824 19.2158 21.9866 19.3606 22.1562 19.5413L25.9587 23.3438C26.1394 23.5134 26.2842 23.7176 26.3844 23.9443C26.4846 24.171 26.5383 24.4155 26.5422 24.6633C26.5461 24.9111 26.5001 25.1572 26.4071 25.3869C26.3141 25.6166 26.1758 25.8253 26.0006 26.0006C25.8253 26.1758 25.6166 26.3141 25.3869 26.4071C25.1572 26.5001 24.9111 26.5461 24.6633 26.5422C24.4155 26.5383 24.171 26.4846 23.9443 26.3844C23.7176 26.2842 23.5134 26.1394 23.3438 25.9587L19.5413 22.1562ZM19 10.25C19 7.92936 18.0781 5.70376 16.4372 4.06282C14.7962 2.42187 12.5706 1.5 10.25 1.5C7.92936 1.5 5.70376 2.42187 4.06282 4.06282C2.42187 5.70376 1.5 7.92936 1.5 10.25C1.5 12.5706 2.42187 14.7962 4.06282 16.4372C5.70376 18.0781 7.92936 19 10.25 19C12.5706 19 14.7962 18.0781 16.4372 16.4372C18.0781 14.7962 19 12.5706 19 10.25Z" stroke="black" stroke-width="2" stroke-linecap="round" stroke-linejoin="round"/>
</svg>
