<svg width="70" height="70" viewBox="0 0 70 70" fill="none" xmlns="http://www.w3.org/2000/svg">
<circle cx="35" cy="35" r="35" fill="#B6C335"/>
<path d="M36.9581 23.8333L47.1664 34.0416M38.4164 50.0833H50.0831M38.5244 23.6656C39.6108 22.4887 40.1533 21.901 40.7308 21.5568C41.4125 21.1488 42.1898 20.9276 42.9842 20.9156C43.7787 20.9035 44.5622 21.1011 45.256 21.4883C45.8437 21.815 46.4037 22.3866 47.5237 23.53C48.6437 24.6748 49.2037 25.2479 49.5216 25.8473C49.901 26.561 50.0939 27.359 50.0824 28.1672C50.0709 28.9753 49.8555 29.7675 49.456 30.4702C49.1206 31.0593 48.5446 31.615 47.391 32.7248L33.6783 45.9329C31.4937 48.0373 30.4014 49.0887 29.0364 49.6225C27.6714 50.1562 26.1708 50.1154 23.1696 50.0381L22.7612 50.0264C21.8483 50.0031 21.3904 49.9914 21.1264 49.6896C20.8596 49.3877 20.896 48.9225 20.9689 47.9921L21.0083 47.4875C21.2125 44.8683 21.3146 43.5587 21.825 42.3804C22.3354 41.2021 23.2191 40.2469 24.9837 38.335L38.5244 23.6656Z" stroke="white" stroke-width="2.1875" stroke-linecap="round" stroke-linejoin="round"/>
</svg>
