<svg width="70" height="70" viewBox="0 0 70 70" fill="none" xmlns="http://www.w3.org/2000/svg">
<circle cx="35" cy="35" r="35" fill="#B6C335"/>
<path d="M39.1458 32.5833C38.5187 30.4746 36.3531 28.9375 34.0417 28.9375C32.688 28.9375 31.3897 29.4753 30.4325 30.4325C29.4753 31.3897 28.9375 32.688 28.9375 34.0417C28.9375 36.6127 30.8392 38.7915 33.3125 39.1458" stroke="white" stroke-width="2" stroke-linecap="round" stroke-linejoin="round"/>
<path d="M47.0936 32.5834C46.3936 26.0704 40.6915 20.9167 34.0415 20.9167C26.9394 20.9167 20.9165 26.7981 20.9165 33.9338C20.9165 41.2079 27.0473 46.2363 32.6896 49.7275C33.1023 49.9598 33.5679 50.0818 34.0415 50.0818C34.5151 50.0818 34.9807 49.9598 35.3934 49.7275C35.7648 49.501 36.1376 49.2672 36.5119 49.0261" stroke="white" stroke-width="2" stroke-linecap="round" stroke-linejoin="round"/>
<path d="M43.5205 42.0625H43.5336M43.5205 35.5C47.0715 35.5 50.083 38.4415 50.083 42.0085C50.083 45.6325 47.0234 48.1773 44.1972 49.9054C43.9911 50.0222 43.7582 50.0836 43.5212 50.0836C43.2843 50.0836 43.0514 50.0222 42.8453 49.9054C40.0234 48.1598 36.958 45.6456 36.958 42.0085C36.958 38.44 39.9695 35.5 43.5205 35.5Z" stroke="white" stroke-width="2" stroke-linecap="round" stroke-linejoin="round"/>
</svg>
