<svg width="70" height="70" viewBox="0 0 70 70" fill="none" xmlns="http://www.w3.org/2000/svg">
<circle cx="35" cy="35" r="35" fill="#B6C335"/>
<path d="M34.0415 45.7084H36.9582M25.2915 31.125C25.2915 26.3125 25.2915 23.9063 26.7863 22.4115C28.2811 20.9167 30.6873 20.9167 35.4998 20.9167C40.3123 20.9167 42.7186 20.9167 44.2134 22.4115C45.7082 23.9063 45.7082 26.3125 45.7082 31.125V39.875C45.7082 44.6875 45.7082 47.0938 44.2134 48.5886C42.7186 50.0834 40.3123 50.0834 35.4998 50.0834C30.6873 50.0834 28.2811 50.0834 26.7863 48.5886C25.2915 47.0938 25.2915 44.6875 25.2915 39.875V31.125Z" stroke="white" stroke-width="2.1875" stroke-linecap="round" stroke-linejoin="round"/>
<path d="M31.125 20.9167L31.2548 21.6954C31.5362 23.3827 31.6777 24.2271 32.2552 24.7404C32.8604 25.2756 33.715 25.2917 35.5 25.2917C37.285 25.2917 38.1396 25.2771 38.7448 24.7404C39.3238 24.2271 39.4638 23.3842 39.7452 21.6954L39.875 20.9167" stroke="white" stroke-width="2.1875" stroke-linecap="round" stroke-linejoin="round"/>
</svg>
